<svg aria-hidden="true" style="position: absolute; width: 0; height: 0; overflow: hidden;" version="1.1" xmlns="http://www.w3.org/2000/svg" xmlns:xlink="http://www.w3.org/1999/xlink">
<defs>
<symbol id="icon-music-2" viewBox="0 0 24 24">
<path fill="#fff" style="fill: var(--color1, #fff)" d="M7.614 3.256v14.1c-0.768-0.16-1.66-0.099-2.547 0.228-1.992 0.741-2.695 2.543-2.167 4.023 0.528 1.482 2.088 2.081 4.080 1.34 1.692-0.627 2.8-2.022 2.774-3.335v-11.647l8.436-1.932v8.946c-0.77-0.159-1.662-0.099-2.549 0.229-1.992 0.741-2.696 2.543-2.168 4.023 0.528 1.482 2.088 2.081 4.080 1.341 1.692-0.628 2.8-2.023 2.775-3.335v-16.713l-12.716 2.731z"></path>
</symbol>
<symbol id="icon-brush" viewBox="0 0 24 24">
<path fill="#fff" style="fill: var(--color1, #fff)" d="M3.405 16.377c-1.799 1.768-0.279 3.582-2.67 6.273-1.079 1.215 4.441 0.845 7.176-1.845 1.159-1.14 0.832-2.802-0.412-4.024-1.242-1.224-2.933-1.545-4.094-0.405zM23.34 1.047c-0.925-0.907-11.145 7.283-14.187 10.272-1.51 1.485-2.014 2.28-2.475 2.875-0.202 0.258 0.063 0.339 0.183 0.401 0.597 0.303 1.015 0.588 1.557 1.119 0.54 0.531 0.83 0.944 1.14 1.53 0.060 0.12 0.143 0.38 0.405 0.183 0.606-0.456 1.416-0.951 2.925-2.436 3.042-2.991 11.373-13.038 10.45-13.944z"></path>
</symbol>
<symbol id="icon-camera" viewBox="0 0 24 24">
<path fill="#fff" style="fill: var(--color1, #fff)" d="M11.979 9.519c-1.968 0-3.564 1.596-3.564 3.564s1.596 3.564 3.564 3.564c1.968 0 3.566-1.596 3.566-3.564s-1.596-3.564-3.566-3.564zM21.485 5.955h-2.85c-0.393 0-0.816-0.304-0.939-0.675l-0.736-2.213c-0.126-0.372-0.546-0.675-0.939-0.675h-8.079c-0.393 0-0.816 0.303-0.939 0.675l-0.736 2.211c-0.125 0.372-0.548 0.675-0.939 0.675h-2.85c-1.308 0-2.377 1.070-2.377 2.377v10.692c0 1.308 1.069 2.376 2.376 2.376h19.011c1.306 0 2.376-1.068 2.376-2.376v-10.692c0-1.308-1.071-2.376-2.378-2.376zM11.979 19.023c-3.28 0-5.94-2.658-5.94-5.94 0-3.28 2.659-5.94 5.94-5.94 3.282 0 5.941 2.659 5.941 5.94 0 3.282-2.659 5.94-5.94 5.94zM20.654 9.993c-0.459 0-0.831-0.375-0.831-0.832s0.372-0.831 0.831-0.831c0.459 0 0.831 0.373 0.831 0.831 0 0.459-0.372 0.832-0.831 0.832z"></path>
</symbol>
<symbol id="icon-airplane" viewBox="0 0 23 24">
<path fill="#fff" style="fill: var(--color1, #fff)" d="M11.525 20.135l1.372-0.792-0.090-7.264 3.542-2.045s2.058-1.188 1.503-2.149c-0.555-0.96-2.612 0.228-2.612 0.228l-3.542 2.045-6.246-3.71-1.372 0.792 4.874 4.502-2.46 1.42-2.336-0.479-1.371 0.792 2.444 1.7 0.249 2.966 1.371-0.792 0.751-2.263 2.46-1.42 1.462 6.472z"></path>
</symbol>
</defs>
</svg>
